<svg xmlns="http://www.w3.org/2000/svg" viewBox="0 0 32 32" id="benzene"><path fill="none" d="M12.75 6.12a.8.8 0 0 0-.3 1.1.82.82 0 0 0 1.11.31L16 6.13l2.44 1.4a.85.85 0 0 0 .4.1.81.81 0 0 0 .41-1.51L16.4 4.49a.81.81 0 0 0-.8 0Z"></path><path fill="#3949ab" d="m21.68 6.61-5.28-3a.78.78 0 0 0-.8 0l-5.28 3a.81.81 0 0 0-.41.71v6a.79.79 0 0 0 .41.7l5.28 3a.85.85 0 0 0 .8 0l5.28-3a.79.79 0 0 0 .41-.7v-6a.81.81 0 0 0-.41-.71Zm-1.31 2.28a1 1 0 0 1-1.37.37l-3-1.71-3 1.71a1 1 0 1 1-1-1.73l3.5-2a1 1 0 0 1 1 0l3.5 2a1 1 0 0 1 .37 1.36Z"></path><path fill="#e53935" d="m28.22 17.91-5.29-3a.83.83 0 0 0-.81 0l-5.28 3a.81.81 0 0 0-.41.7v6a.84.84 0 0 0 .41.71l5.28 3a.93.93 0 0 0 .41.11.86.86 0 0 0 .4-.11l5.29-3a.83.83 0 0 0 .4-.71v-6a.8.8 0 0 0-.4-.7ZM27 23.6a1 1 0 0 1-.5.87l-3.5 2a1 1 0 0 1-1.37-.37 1 1 0 0 1 .37-1.36L25 23v-3.4a1 1 0 0 1 2 0Z"></path><path fill="#303f9f" d="M22.09 7.32v6a.79.79 0 0 1-.41.7L16.4 17a.79.79 0 0 1-.4.1V7.55l3 1.71a1 1 0 0 0 1.37-.37A1 1 0 0 0 20 7.53l-3.5-2a1 1 0 0 0-.5-.13V3.5a.71.71 0 0 1 .4.11l5.28 3a.81.81 0 0 1 .41.71Z"></path><path fill="#69f0ae" d="m15.07 18-5.28-3A.83.83 0 0 0 9 15l-5.3 3a.81.81 0 0 0-.41.7v6a.84.84 0 0 0 .41.71l5.28 3a.8.8 0 0 0 .81 0l5.28-3a.84.84 0 0 0 .41-.71v-6a.81.81 0 0 0-.41-.7Zm-4.7 8a1 1 0 0 1-1.37.47l-3.5-2a1 1 0 0 1-.5-.87v-4a1 1 0 0 1 2 0V23l3 1.72a1 1 0 0 1 .37 1.38Z"></path><path fill="#4a148c" d="m29.49 17-6-3.41V6.7a1 1 0 0 0-.49-.87l-6.5-3.7a1 1 0 0 0-1 0L9 5.83a1 1 0 0 0-.51.87v6.93L2.51 17a1 1 0 0 0-.51.87v7.4a1 1 0 0 0 .51.87L9 29.87a1 1 0 0 0 1 0l6-3.42 6 3.42a1 1 0 0 0 1 0l6.5-3.7a1 1 0 0 0 .5-.87v-7.4a1 1 0 0 0-.51-.9Zm-19-9.76L16 4.15l5.5 3.13v6.23L16 16.64l-5.5-3.13Zm-1 20.57L4 24.72v-6.23l5.5-3.13 5.5 3.13v6.23ZM28 24.72l-5.5 3.13-5.5-3.13v-6.23l5.5-3.13 5.5 3.13Z"></path></svg>